<?xml version="1.0" standalone="no"?>
<!DOCTYPE svg PUBLIC "-//W3C//DTD SVG 20010904//EN"
 "http://www.w3.org/TR/2001/REC-SVG-20010904/DTD/svg10.dtd">
<svg version="1.0" xmlns="http://www.w3.org/2000/svg"
 width="16.000000pt" height="16.000000pt" viewBox="0 0 16.000000 16.000000"
 preserveAspectRatio="xMidYMid meet">

<g transform="translate(0.000000,16.000000) scale(0.100000,-0.100000)"
fill="#000000" stroke="none">
<path d="M21 99 c-14 -47 -15 -45 22 -54 30 -8 38 8 11 23 -14 8 -15 15 -6 41
9 24 8 31 -2 31 -7 0 -18 -18 -25 -41z"/>
<path d="M90 112 c0 -5 7 -12 15 -16 12 -4 13 -11 5 -31 -13 -35 -13 -48 2
-43 10 4 42 78 36 84 -10 9 -58 14 -58 6z"/>
<path d="M60 96 c0 -8 7 -17 16 -20 25 -9 26 -2 4 17 -16 13 -20 14 -20 3z"/>
</g>
</svg>
